<svg width="160" height="53" viewBox="0 0 160 53" fill="none" xmlns="http://www.w3.org/2000/svg">
<g id="logo">
<path id="Stroke 16" fill-rule="evenodd" clip-rule="evenodd" d="M36.1064 22.0005H50.1481C49.4404 18.2303 46.9367 16.0756 43.1269 16.0756C39.3174 16.0756 36.8138 18.2303 36.1064 22.0005ZM56.5159 26.5786H36.0517C36.7587 30.5108 39.372 32.7729 43.3992 32.7729C46.2836 32.7729 47.9713 31.6953 48.8421 29.8104H55.9174C54.2845 35.4116 49.5494 38.428 43.1266 38.428C35.3439 38.428 29.6289 32.6647 29.6289 24.4243C29.6289 16.184 35.3439 10.4211 43.1266 10.4211C50.9101 10.4211 56.6247 16.184 56.6247 24.4243C56.6247 25.1786 56.5703 25.8786 56.5159 26.5786Z" fill="#00AD21"/>
<path id="Stroke 17" fill-rule="evenodd" clip-rule="evenodd" d="M123.205 24.4962C123.205 19.6237 120.06 16.3753 115.884 16.3753C111.709 16.3753 108.564 19.6237 108.564 24.4962C108.564 29.3684 111.709 32.6164 115.884 32.6164C120.06 32.6164 123.205 29.3684 123.205 24.4962ZM116.155 52.1057C108.944 52.1057 103.576 47.2873 102.6 40.1953H109.161C109.757 43.7685 112.415 46.1501 116.155 46.1501C120.602 46.1501 123.205 42.7938 123.205 38.0299V34.6191C121.199 37.1097 118.325 38.5711 115.072 38.5711C107.643 38.5711 102.058 32.7787 102.058 24.4961C102.058 16.2135 107.643 10.4211 115.072 10.4211C118.325 10.4211 121.199 11.8825 123.205 14.3731V10.9623H129.712V38.0299C129.712 46.3125 123.639 52.1057 116.155 52.1057Z" fill="#00AD21"/>
<path id="Stroke 18" fill-rule="evenodd" clip-rule="evenodd" d="M89.5469 11.0725H95.4728V37.7767H89.5469V11.0725Z" fill="#00AD21"/>
<path id="Stroke 19" fill-rule="evenodd" clip-rule="evenodd" d="M89.5469 5.86189H95.4728V0H89.5469V5.86189Z" fill="#00AD21"/>
<path id="Stroke 20" fill-rule="evenodd" clip-rule="evenodd" d="M142.134 37.7766H135.638V10.9577H142.134V14.3367C143.813 11.4938 146.574 10.4211 149.93 10.4211C155.669 10.4211 160 14.1762 160 21.7387V37.7766H153.503V23.026C153.503 18.5206 151.338 16.0533 147.819 16.0533C144.3 16.0533 142.134 18.9892 142.134 23.4946V37.7766Z" fill="#00AD21"/>
<path id="Stroke 21" fill-rule="evenodd" clip-rule="evenodd" d="M6.49669 37.7766H0V10.9577H6.49669V14.3367C8.17472 11.4938 10.9359 10.4211 14.2927 10.4211C20.0312 10.4211 24.3621 14.1762 24.3621 21.7387V37.7766H17.8658V23.026C17.8658 18.5206 15.7 16.0533 12.1815 16.0533C8.66212 16.0533 6.49669 18.9892 6.49669 23.4946V37.7766Z" fill="#00AD21"/>
<path id="Stroke 22" fill-rule="evenodd" clip-rule="evenodd" d="M67.8191 27.3555V38.4279H57.2842L67.8191 27.3555Z" fill="#00AD21"/>
<path id="Stroke 23" fill-rule="evenodd" clip-rule="evenodd" d="M86.9138 37.7767L66.0311 11.0725H57.2842L78.1664 37.7767H86.9138Z" fill="#00AD21"/>
<path id="Stroke 24" fill-rule="evenodd" clip-rule="evenodd" d="M76.3779 22.145V11.0725H86.9129L76.3779 22.145Z" fill="#00AD21"/>
</g>
</svg>
